<?xml version="1.0" encoding="utf-8"?>
<!-- Generator: Adobe Illustrator 22.1.0, SVG Export Plug-In . SVG Version: 6.00 Build 0)  -->
<svg version="1.1" id="圖層_1" xmlns="http://www.w3.org/2000/svg" xmlns:xlink="http://www.w3.org/1999/xlink" x="0px" y="0px"
	 viewBox="0 0 512 512" style="enable-background:new 0 0 512 512;" xml:space="preserve">
<style type="text/css">
	.st0{fill:#815C94;}
</style>
<path class="st0" d="M256.4,25.8l-200,115.5L56,371.5l199.6,114.7l200-115.5l0.4-230.2L256.4,25.8z M288.3,347c-8,0-12-5.2-12-15.6
	c-0.2-46-8.2-85.5-24-118.5c-13.4-28-29.7-42-48.9-42c-13.6,0-28,12-43.2,36c-10.2,15.8-19,33.7-26.4,53.7l65.7,13.2
	c8.6,1.8,12.9,6.3,12.9,13.5s-3.6,10.9-10.8,11.1c-4.6,0.2-29.8-4.8-75.6-15c-4.6,14.2-8.7,30.6-12.3,49.2
	c-1.8,9.6-5.9,14.4-12.3,14.4c-7.6,0-11.4-4.2-11.4-12.6c0-25.6,11.7-63,35.1-112.2c23.4-49.2,49-73.8,76.8-73.8
	c35.6,0,62.5,26.8,80.7,80.4c12,35.2,18,69.4,18,102.6C300.6,341.8,296.5,347,288.3,347z M407.7,341.3c-10.8,3.8-26.8,5.7-48,5.7
	c-14,0-24.1-1.5-30.3-4.5c-5.2-2.6-7.8-5.9-7.8-9.9c0-7.4,3.9-11.1,11.7-11.1c1.4,0,3.7,0.3,6.9,0.9c3.4,0.8,6.6,1.2,9.6,1.2
	c0-47,2-97.6,6-151.8c-2.2,0-5.8,0.1-10.8,0.3c-4.8,0.2-7.8,0.3-9,0.3c-9,0-13.5-3.9-13.5-11.7c0-7,4.5-10.8,13.5-11.4
	c8.4-0.6,15.2-0.9,20.4-0.9c13.2,0,28.6,0.4,46.2,1.2c8.8,0.4,13.2,4.5,13.2,12.3c0,7.4-4.4,11.1-13.2,11.1c-2.2,0-6-0.2-11.4-0.6
	c-5.6-0.2-9.1-0.3-10.5-0.3c-4.2,51-6.3,101.6-6.3,151.8c7.4,0,13.8-0.7,19.2-2.1c5.4-1.2,9.6-1.8,12.6-1.8c7,0,10.5,3.8,10.5,11.4
	C416.7,336,413.7,339.3,407.7,341.3z"/>
</svg>
