<?xml version="1.0" encoding="utf-8"?>
<!-- Generator: Adobe Illustrator 22.1.0, SVG Export Plug-In . SVG Version: 6.00 Build 0)  -->
<svg version="1.1" id="图层_1" xmlns="http://www.w3.org/2000/svg" xmlns:xlink="http://www.w3.org/1999/xlink" x="0px" y="0px"
	 viewBox="0 0 200 200" style="enable-background:new 0 0 200 200;" xml:space="preserve">
<style type="text/css">
	.st0{fill:#515151;}
	.st1{clip-path:url(#SVGID_2_);fill:#FFFFFF;}
	.st2{clip-path:url(#SVGID_4_);fill:#FFFFFF;}
	.st3{fill:#FFFFFF;}
</style>
<path class="st0" d="M100,200C45,200,0,155,0,100S45,0,100,0s100,45,100,100S155,200,100,200z"/>
<g>
	<g>
		<g>
			<defs>
				<rect id="SVGID_1_" x="26.6" y="30.5" width="146.8" height="139.1"/>
			</defs>
			<clipPath id="SVGID_2_">
				<use xlink:href="#SVGID_1_"  style="overflow:visible;"/>
			</clipPath>
			<path class="st1" d="M77.5,51L63.9,37.8c0,0-2.1-2.6,1.5-5.6c3.6-2.9,3.8-1.6,5-0.8C71.6,32.3,90.6,51,90.6,51H77.5z M122.5,51.5
				l13.6-13.1c0,0,2.1-2.6-1.5-5.6c-3.6-2.9-3.8-1.6-5-0.8c-1.2,0.8-20.2,19.5-20.2,19.5S122.5,51.5,122.5,51.5z"/>
		</g>
		<g>
			<defs>
				<rect id="SVGID_3_" x="26.6" y="30.5" width="146.8" height="139.1"/>
			</defs>
			<clipPath id="SVGID_4_">
				<use xlink:href="#SVGID_3_"  style="overflow:visible;"/>
			</clipPath>
			<path class="st2" d="M173.4,75.8C172.9,55.2,155,51.3,155,51.3s-91.6-0.7-110.7,0c-19.1,5.4-17.6,24.5-17.6,24.5s0.3,40.9,0,61.6
				c2.1,20.7,18,24,18,24s6.4,0.1,11,0.1c0.5,1.3,0.9,7.8,8.1,7.8s8.1-7.8,8.1-7.8s52.9-0.3,57.3-0.3c0.3,2.2,1.3,8.2,8.6,8.1
				c7.2-0.1,7.7-8.6,7.7-8.6s2.4-0.3,9.8,0c17.1-3.2,18.1-23.3,18.1-23.3S173.2,96.4,173.4,75.8L173.4,75.8z M158.7,141.3
				c0,3.2-2.6,5.9-5.7,5.9H48.6c-3.2,0-5.7-2.6-5.7-5.9V72.2c0-3.2,2.6-5.9,5.7-5.9h104.3c3.2,0,5.7,2.6,5.7,5.9v69.1H158.7z"/>
		</g>
	</g>
	<path class="st3" d="M53.8,91.7l30.6-5.9l2.3,11.5l-30.4,5.9L53.8,91.7z M149.1,91.7l-30.6-5.9l-2.3,11.5l30.4,5.9L149.1,91.7z
		 M86.8,120.3c0,0,6.7,12.1,14.2-3.9c7.2,15.7,15.2,4.2,15.2,4.2l4.5,3c0,0-8.5,13.6-19.6,3.3c-9.4,10.3-19.4-3.3-19.4-3.3
		L86.8,120.3z"/>
</g>
</svg>
