<?xml version="1.0" encoding="utf-8"?>
<!-- Generator: Adobe Illustrator 22.1.0, SVG Export Plug-In . SVG Version: 6.00 Build 0)  -->
<svg version="1.1" id="图层_1" xmlns="http://www.w3.org/2000/svg" xmlns:xlink="http://www.w3.org/1999/xlink" x="0px" y="0px"
	 viewBox="0 0 200 200" style="enable-background:new 0 0 200 200;" xml:space="preserve">
<style type="text/css">
	.st0{fill:none;}
	.st1{fill:#515151;}
</style>
<g>
	<rect x="28.9" y="28.7" class="st0" width="141" height="133.6"/>
	<g>
		<path class="st1" d="M150.2,63.1H50c-3,0-5.5,2.5-5.5,5.7v66.4c0,3.1,2.5,5.7,5.5,5.7h100.2c3,0,5.5-2.5,5.5-5.7V68.8
			C155.7,65.6,153.3,63.1,150.2,63.1z M55.1,87.5l29.4-5.7l2.2,11.1l-29.2,5.7L55.1,87.5z M100.5,121.2c-9.1,9.9-18.6-3.1-18.6-3.1
			l4.8-3.1c0,0,6.5,11.6,13.6-3.8c6.9,15.1,14.6,4,14.6,4l4.3,2.8C119.3,118,111.2,131,100.5,121.2z M144.1,98.6l-29.2-5.7l2.2-11.1
			l29.4,5.7L144.1,98.6z"/>
		<path class="st1" d="M100,0C45,0,0,45,0,100s45,100,100,100s100-45,100-100S155,0,100,0z M169.9,131.5c0,0-1,19.3-17.4,22.4
			c-7.1-0.2-9.4,0-9.4,0s-0.5,8.1-7.4,8.2c-7,0.1-8-5.7-8.2-7.8c-4.2,0-55.1,0.2-55.1,0.2s-0.8,7.5-7.8,7.5c-7,0-7.3-6.2-7.8-7.5
			c-4.5,0-10.6-0.1-10.6-0.1s-15.3-3.2-17.3-23.1c0.3-19.9,0-59.2,0-59.2s-1.4-18.3,17-23.5c5.6-0.2,17.7-0.3,31.9-0.3l-13-12.6
			c0,0-2-2.5,1.4-5.3c3.5-2.8,3.6-1.6,4.8-0.8c1.2,0.8,19.4,18.7,19.4,18.7h-2.4c6.9,0,14.1,0,21,0.1c2.7-2.7,17.9-17.6,18.9-18.3
			c1.2-0.8,1.4-2,4.8,0.8c3.4,2.8,1.4,5.3,1.4,5.3l-12.7,12.3c17.4,0.1,30.9,0.2,30.9,0.2s17.2,3.8,17.6,23.5
			C169.7,92,169.9,131.5,169.9,131.5z"/>
	</g>
</g>
</svg>
