<?xml version="1.0" encoding="utf-8"?>
<!-- Generator: Adobe Illustrator 22.1.0, SVG Export Plug-In . SVG Version: 6.00 Build 0)  -->
<svg version="1.1" id="图层_1" xmlns="http://www.w3.org/2000/svg" xmlns:xlink="http://www.w3.org/1999/xlink" x="0px" y="0px"
	 viewBox="0 0 200 200" style="enable-background:new 0 0 200 200;" xml:space="preserve">
<style type="text/css">
	.st0{fill:#515151;}
	.st1{fill:#FFFFFF;}
</style>
<path class="st0" d="M100,200C45,200,0,155,0,100S45,0,100,0s100,45,100,100S155,200,100,200z"/>
<path class="st1" d="M163.2,98.8c-1.7-5.9-4.4-11.4-8.2-16.3c-4.3-5.6-9.7-10.4-15.7-14.1c-6.2-3.7-13.3-5.8-20.5-6l-3-11.3
	c-0.4-1.9,0.2-3.8,1.5-5.2c1.3-1.5,3.2-2.5,5.2-2.7c2.9,0.1,5.8,1,8.2,2.7c0.9,0.5,1.5,1.3,2.4,1.9c3.9,2.3,9,1,11.3-2.9
	c1.3-2.2,1.5-4.8,0.6-7.2c-0.7-1.6-1.8-3-3.3-4c-3.8-2.9-8.1-5-12.8-6.2c-4.2-1.1-8.5-1-12.6,0.2c-3.3,1.1-6.2,3-8.7,5.4
	c-2.5,2-4.5,4.6-5.9,7.4c-2.5,5.1-2.9,10.9-1.3,16.3l2,7.5c-9.1,2.4-17.2,8-22.7,15.7c-4.4,6.6-6.6,14.5-6.2,22.5
	c0.1,3.6,0.8,7.2,2,10.6c2.1,6.1,6.2,11.4,11.6,15c5.8,3.7,12.8,5,19.6,3.7c13.4-2.6,22.9-14.6,22.4-28.2l-0.8-4.7
	c-1.7-6.6-3.5-13.1-5.1-19.7c2.4,0.5,4.7,1.4,6.8,2.6c2.4,1.5,4.7,3.1,6.8,5c4.9,4.2,8.5,9.7,10.4,15.9c2.1,7.4,2.1,15.2,0,22.6
	c-0.8,2.6-1.8,5-3.1,7.3c-5.2,9.7-13.8,17-24.1,20.7c-6,2.2-12.3,3.3-18.7,3.3c-7.7,0-15.4-1.8-22.3-5.4
	c-11.3-6.1-20-16.1-24.5-28.2c-3.1-8.3-4.1-17.2-2.9-26c2.6-19.1,15.4-35.2,33.4-42.1c4.2-1.7,6.3-6.5,4.7-10.7
	c-0.6-1.4-1.5-2.7-2.8-3.6c-2.8-1.5-6.2-1.7-9.1-0.5c-21,8.5-36.4,26.9-41.3,49c-5.2,23.3,1.7,47.7,18.5,64.7
	c9.6,9.9,22.1,16.5,35.7,18.9c6.6,1,13.3,1,19.8,0c9.6-1.1,18.8-4.3,27-9.4c11.2-7.1,19.8-17.6,24.5-30c1.8-5.1,2.9-10.3,3.3-15.7
	C165.6,111.2,164.9,104.9,163.2,98.8L163.2,98.8z M104,115.8c-2.8,0.6-5.8,0.1-8.2-1.5c-2.8-2.1-4.8-5.3-5.4-8.8
	c-0.6-3.1-0.6-6.3,0-9.4c0.7-3.4,2.4-6.6,4.8-9.1c3.2-3.2,7.2-5.5,11.6-6.7l5.6,21.3c0.3,1.2,0.6,2.5,0.7,3.8
	C112.9,110.5,109.1,114.8,104,115.8z"/>
</svg>
