<?xml version="1.0" encoding="utf-8"?>
<!-- Generator: Adobe Illustrator 22.1.0, SVG Export Plug-In . SVG Version: 6.00 Build 0)  -->
<svg version="1.1" id="图层_1" xmlns="http://www.w3.org/2000/svg" xmlns:xlink="http://www.w3.org/1999/xlink" x="0px" y="0px"
	 viewBox="0 0 200 200" style="enable-background:new 0 0 200 200;" xml:space="preserve">
<style type="text/css">
	.st0{fill:#515151;}
</style>
<g>
	<path class="st0" d="M100,0C45,0,0,45,0,100s45,100,100,100s100-45,100-100S155,0,100,0z M165,117.5c-0.4,5.3-1.5,10.6-3.3,15.6
		c-4.7,12.3-13.2,22.8-24.4,29.9c-8.2,5.1-17.4,8.3-26.9,9.4c-6.6,1-13.2,1-19.8,0c-13.6-2.4-26-8.9-35.6-18.8
		c-16.7-16.9-23.7-41.2-18.5-64.5c4.8-22,20.2-40.3,41.1-48.8c3-1.2,6.3-1,9.1,0.5c1.2,0.9,2.2,2.2,2.8,3.6c1.7,4.2-0.4,9-4.6,10.7
		C67,61.9,54.3,78,51.7,97c-1.2,8.7-0.2,17.6,2.9,25.9c4.4,12,13.1,22,24.4,28.1c6.9,3.6,14.5,5.4,22.2,5.4c6.4,0,12.6-1.2,18.6-3.3
		c10.3-3.7,18.9-11,24.1-20.6c1.3-2.3,2.3-4.8,3.1-7.3c2.1-7.4,2.1-15.2,0-22.5c-1.9-6.1-5.5-11.6-10.3-15.8c-2.1-1.9-4.4-3.6-6.8-5
		c-2.1-1.2-4.4-2.1-6.8-2.6c1.6,6.5,3.4,13,5.1,19.6l0.8,4.7c0.5,13.6-9,25.5-22.4,28.1c-6.7,1.3-13.7,0-19.5-3.7
		c-5.4-3.6-9.4-8.8-11.5-15c-1.2-3.4-1.8-7-2-10.6c-0.4-7.9,1.7-15.8,6.2-22.4c5.5-7.7,13.5-13.2,22.6-15.6l-2-7.5
		c-1.6-5.4-1.2-11.2,1.2-16.3c1.4-2.8,3.4-5.4,5.9-7.4c2.5-2.4,5.4-4.2,8.7-5.4c4.1-1.2,8.5-1.2,12.6-0.2c4.6,1.1,9,3.2,12.8,6.2
		c1.4,1,2.6,2.4,3.3,4c0.9,2.4,0.7,5-0.6,7.2c-2.3,3.9-7.4,5.2-11.3,2.9c-0.9-0.6-1.5-1.4-2.4-1.9c-2.4-1.7-5.2-2.6-8.1-2.7
		c-2,0.2-3.9,1.2-5.2,2.7c-1.3,1.4-1.9,3.3-1.5,5.2l3,11.3c7.2,0.3,14.3,2.3,20.5,6c6,3.7,11.4,8.5,15.7,14.1
		c3.7,4.9,6.5,10.4,8.1,16.3C164.7,104.9,165.4,111.2,165,117.5z"/>
	<path class="st0" d="M106.8,80.3c-4.4,1.2-8.3,3.5-11.5,6.7c-2.4,2.5-4.1,5.7-4.8,9.1c-0.6,3.1-0.6,6.3,0,9.4
		c0.6,3.5,2.5,6.6,5.4,8.8c2.4,1.6,5.3,2.2,8.1,1.5c5.1-1,8.9-5.3,9.2-10.5c-0.2-1.3-0.4-2.5-0.7-3.8L106.8,80.3z"/>
</g>
</svg>
